<?xml version="1.0" standalone="no"?>
<!DOCTYPE svg PUBLIC "-//W3C//DTD SVG 20010904//EN"
 "http://www.w3.org/TR/2001/REC-SVG-20010904/DTD/svg10.dtd">
<svg version="1.0" xmlns="http://www.w3.org/2000/svg"
 width="207.000000pt" height="196.000000pt" viewBox="0 0 207.000000 196.000000"
 preserveAspectRatio="xMidYMid meet">

<g transform="translate(0.000000,196.000000) scale(0.100000,-0.100000)"
fill="#000000" stroke="none">
<path d="M905 1756 c-362 -71 -622 -370 -642 -739 -5 -92 -8 -107 -22 -103
-51 15 -73 17 -104 7 -35 -12 -80 -51 -59 -51 7 0 12 4 12 8 0 25 57 32 204
26 175 -7 231 3 353 62 62 29 78 43 107 88 39 61 86 99 123 99 76 0 31 -102
-63 -144 -47 -22 -54 -33 -54 -94 0 -33 5 -47 19 -54 54 -29 234 84 305 192
43 65 95 95 132 78 25 -11 32 -44 14 -71 -8 -12 -10 -9 -10 12 0 15 -5 30 -11
34 -17 10 -67 -45 -99 -110 -50 -98 -36 -149 38 -148 52 1 113 29 255 115 150
92 200 109 325 115 l104 4 -7 46 c-4 25 -20 83 -37 129 -84 234 -290 421 -533
487 -83 23 -263 29 -350 12z m63 -163 c-1 -37 -1 -37 -5 -5 -4 31 -12 39 -26
25 -4 -3 -2 -11 3 -18 6 -8 5 -17 -3 -28 -10 -15 -12 -13 -13 15 -2 33 9 48
34 48 8 0 11 -13 10 -37z m120 29 c15 11 15 11 4 -4 -9 -11 -10 -18 -2 -23 5
-3 10 -12 10 -18 0 -7 -6 -3 -12 8 -11 19 -11 19 -19 0 -6 -15 -8 -11 -8 15 1
19 3 29 6 22 4 -10 8 -10 21 0z m101 -6 c9 -10 7 -17 -6 -27 -16 -13 -17 -12
-5 3 14 17 1 35 -18 23 -5 -3 -10 -1 -10 4 0 16 25 14 39 -3z m-300 -56 c-1
-13 -1 -13 -6 0 -3 8 -10 18 -16 21 -5 4 -6 13 -2 20 6 9 10 8 16 -7 4 -10 8
-26 8 -34z m371 8 c0 -23 -3 -29 -9 -19 -5 8 -16 11 -25 8 -21 -8 -20 2 1 25
24 26 33 22 33 -14z m-416 -18 l7 -25 -15 25 c-17 28 -21 50 -7 35 5 -6 12
-21 15 -35z m310 25 c-4 -8 -8 -15 -10 -15 -2 0 -4 7 -4 15 0 8 4 15 10 15 5
0 7 -7 4 -15z m-369 -22 c5 -15 4 -16 -6 -5 -20 19 -31 14 -24 -10 5 -20 4
-21 -5 -5 -6 9 -8 22 -5 27 10 16 32 12 40 -7z m516 -10 c-8 -15 -10 -15 -11
-2 0 17 10 32 18 25 2 -3 -1 -13 -7 -23z m-602 -87 c-9 -8 -10 -8 -4 3 5 9 0
20 -16 33 -23 18 -23 19 -1 8 20 -10 22 -8 24 17 1 20 3 17 5 -11 3 -22 -1
-43 -8 -50z m121 58 c0 -2 -7 -4 -15 -4 -8 0 -15 4 -15 10 0 5 7 7 15 4 8 -4
15 -8 15 -10z m571 7 c-8 -5 -12 -18 -8 -30 3 -12 1 -19 -4 -15 -20 12 -8 54
15 54 6 0 5 -4 -3 -9z m41 -43 c-8 -8 -9 -4 -5 13 4 13 8 18 11 10 2 -7 -1
-18 -6 -23z m64 -10 c10 -13 15 -20 10 -15 -5 4 -21 -3 -35 -15 l-25 -23 17
28 c10 15 15 32 12 37 -11 18 2 10 21 -12z m-869 5 c-4 -3 0 -18 9 -32 l17
-26 -25 23 c-13 12 -26 21 -29 20 -2 -2 2 3 10 10 15 12 29 17 18 5z m910 -70
c0 -16 -2 -22 -4 -15 -3 6 -9 10 -14 6 -13 -8 -11 4 4 21 6 8 13 14 13 15 1 0
1 -12 1 -27z m-962 -51 c-6 -8 -35 12 -35 24 0 11 4 10 18 -3 10 -10 18 -19
17 -21z m936 21 c13 -16 12 -17 -3 -4 -10 7 -18 15 -18 17 0 8 8 3 21 -13z
m64 -3 c-3 -5 -14 -14 -24 -19 -13 -7 -18 -6 -18 4 0 7 6 11 13 8 6 -2 15 0
19 6 3 6 8 11 11 11 3 0 2 -4 -1 -10z"/>
<path d="M1235 1580 c-3 -5 -1 -10 4 -10 6 0 11 5 11 10 0 6 -2 10 -4 10 -3 0
-8 -4 -11 -10z"/>
<path d="M839 1088 c-58 -63 -60 -90 -3 -46 36 28 53 49 54 66 0 21 -20 13
-51 -20z"/>
<path d="M1917 1074 c-3 -4 -64 -8 -134 -9 -172 -4 -211 -18 -438 -156 -109
-67 -162 -89 -216 -89 -59 0 -89 33 -89 99 l0 50 -67 -51 c-121 -91 -192 -110
-239 -63 -22 22 -25 33 -22 75 1 28 2 50 2 50 -1 0 -21 -11 -45 -24 -95 -51
-176 -71 -295 -71 l-112 0 5 -35 c3 -19 18 -73 33 -120 48 -146 131 -269 247
-365 311 -256 752 -243 1045 33 159 151 247 357 248 585 l0 79 28 -6 c17 -4
35 -1 47 8 11 9 17 16 14 16 -3 0 -8 -3 -12 -6z m-1377 -409 c12 -17 12 -18 0
-7 -20 17 -33 15 -26 -4 5 -14 4 -15 -9 -4 -14 12 -20 7 -15 -15 1 -5 -5 -4
-12 4 -9 9 -10 15 -2 18 6 2 20 10 30 18 10 7 19 13 19 12 1 -1 7 -11 15 -22z
m500 10 c12 -14 15 -14 32 2 13 12 21 14 30 5 8 -8 3 -23 -16 -57 l-27 -46
-18 23 c-28 36 -42 68 -36 78 9 14 21 12 35 -5z m582 -22 c-15 -3 -22 -10 -18
-19 7 -18 -4 -17 -29 3 -16 13 -17 15 -2 10 9 -4 17 -2 17 3 0 6 12 9 28 9 24
-2 25 -2 4 -6z m-1062 -48 c-11 -13 -8 -15 16 -16 22 -1 24 -3 8 -6 -12 -2
-26 -14 -32 -26 -10 -20 -11 -19 -5 8 6 27 5 29 -10 16 -10 -7 -17 -10 -17 -6
0 6 41 44 49 45 2 0 -2 -7 -9 -15z m1015 -16 c10 -30 -19 -58 -43 -43 -9 6
-18 20 -19 30 -2 14 0 13 7 -4 11 -27 43 -26 48 1 2 10 -5 21 -20 26 -23 10
-23 10 -1 10 14 1 24 -7 28 -20z m-75 -64 c13 -14 21 -25 18 -25 -2 0 -15 11
-28 25 -13 14 -21 25 -18 25 2 0 15 -11 28 -25z m-866 -7 c-3 -13 -10 -30 -15
-38 -7 -12 -8 -10 -9 7 0 12 -5 25 -11 29 -8 4 -7 9 2 15 26 16 41 10 33 -13z
m846 -52 c-20 -21 -35 -16 -51 17 -10 21 -9 21 10 -1 27 -31 48 -19 25 15
l-16 26 25 -19 c25 -18 25 -20 7 -38z m-773 19 c-1 0 -15 -11 -32 -25 -25 -21
-27 -22 -11 -3 10 12 16 29 13 37 -5 13 -3 14 13 4 10 -7 18 -12 17 -13z m58
-35 c4 -6 -1 -7 -11 -3 -14 5 -16 3 -11 -11 4 -9 3 -15 -2 -11 -6 3 -14 -3
-20 -12 -6 -10 -11 -14 -11 -10 0 12 31 57 41 57 4 0 11 -4 14 -10z m645 -10
c14 -11 20 -20 13 -20 -6 0 -15 5 -18 10 -7 11 -28 14 -22 3 3 -5 1 -17 -4
-28 -6 -16 -8 -12 -8 18 -1 42 4 44 39 17z m-81 -4 c-2 -2 -15 -9 -29 -15 -24
-11 -24 -11 -6 3 16 13 49 24 35 12z m-479 -36 c0 -5 -4 -12 -10 -15 -5 -3 -7
0 -4 8 3 8 -1 17 -10 20 -8 3 -17 0 -20 -8 -3 -8 0 -15 7 -18 6 -2 2 -6 -10
-9 -22 -6 -22 -5 -7 23 12 25 18 28 34 19 11 -6 20 -15 20 -20z m393 0 c-23
-10 -31 -44 -13 -53 6 -3 5 -4 -2 -3 -33 7 -13 67 21 65 11 0 9 -3 -6 -9z m87
-25 c0 -5 -5 -3 -10 5 -5 8 -10 20 -10 25 0 6 5 3 10 -5 5 -8 10 -19 10 -25z
m-447 -7 c-3 -16 -9 -28 -14 -28 -4 0 -3 14 3 31 12 36 18 35 11 -3z m47 -9
c-12 -41 -24 -53 -14 -14 6 25 5 28 -7 20 -8 -5 -6 -2 4 8 26 23 27 22 17 -14z
m70 -9 c10 0 21 8 23 18 3 11 5 8 6 -9 1 -23 -2 -25 -29 -21 -23 3 -30 9 -29
26 1 17 2 17 6 4 2 -10 13 -18 23 -18z m95 0 c20 0 29 -20 16 -33 -9 -9 -11
-8 -6 6 5 11 2 17 -8 17 -9 0 -18 -8 -20 -17 -3 -10 -5 0 -5 22 0 22 2 32 5
23 2 -10 11 -18 18 -18z m42 -27 c-3 -10 -5 -4 -5 12 0 17 2 24 5 18 2 -7 2
-21 0 -30z"/>
<path d="M610 519 c0 -5 5 -7 10 -4 6 3 10 8 10 11 0 2 -4 4 -10 4 -5 0 -10
-5 -10 -11z"/>
</g>
</svg>
