<?xml version="1.0" standalone="no"?>
<!DOCTYPE svg PUBLIC "-//W3C//DTD SVG 20010904//EN"
 "http://www.w3.org/TR/2001/REC-SVG-20010904/DTD/svg10.dtd">
<svg version="1.0" xmlns="http://www.w3.org/2000/svg"
 width="1254.000000pt" height="1254.000000pt" viewBox="0 0 1254.000000 1254.000000"
 preserveAspectRatio="xMidYMid meet">

<g transform="translate(0.000000,1254.000000) scale(0.100000,-0.100000)"
fill="#000000" stroke="none">
<path d="M0 6270 l0 -6270 6270 0 6270 0 0 6270 0 6270 -6270 0 -6270 0 0
-6270z m6635 5260 c1137 -83 2163 -528 3024 -1312 409 -372 820 -917 1077
-1430 226 -451 396 -975 464 -1428 19 -128 10 -116 101 -130 145 -23 265 3
336 72 54 52 87 18 37 -41 -42 -50 -122 -89 -207 -102 -88 -13 -161 -5 -365
41 -181 41 -267 51 -437 51 -637 0 -1287 -232 -2065 -736 -487 -316 -717 -454
-935 -565 -411 -208 -744 -280 -999 -214 -182 47 -305 169 -362 359 -38 122
-15 438 41 572 9 20 10 33 4 33 -6 0 -72 -58 -147 -129 -602 -568 -1104 -841
-1457 -792 -43 6 -103 22 -133 36 -58 27 -171 105 -172 118 0 5 -13 28 -30 52
-44 64 -80 199 -80 301 0 111 23 252 60 365 17 50 30 92 30 94 0 1 -64 -36
-142 -83 -456 -273 -945 -461 -1388 -531 -445 -71 -734 -50 -1385 97 -357 82
-573 61 -688 -67 -40 -45 -77 -54 -77 -21 0 31 73 103 139 138 90 48 168 65
309 65 l122 1 0 230 c0 513 79 984 250 1496 210 631 519 1183 949 1700 125
151 443 469 601 602 823 692 1794 1079 2920 1161 108 8 477 6 605 -3z m4508
-4395 c44 -8 82 -17 86 -20 17 -10 36 -361 35 -640 -1 -562 -80 -1023 -269
-1575 -61 -176 -177 -454 -255 -610 -695 -1386 -1974 -2360 -3490 -2659 -369
-73 -663 -97 -1070 -87 -305 6 -421 17 -705 66 -1376 234 -2581 1026 -3359
2209 -455 690 -735 1503 -792 2302 l-7 97 104 -22 104 -22 17 -154 c49 -441
148 -843 308 -1245 87 -218 178 -406 296 -612 598 -1042 1570 -1830 2709
-2194 310 -99 707 -180 1020 -209 642 -60 1308 18 1930 225 872 291 1650 839
2226 1570 411 521 729 1173 894 1834 105 424 142 766 132 1246 -5 243 -10 332
-31 493 -4 29 -2 32 17 27 12 -2 57 -11 100 -20z m-1547 -2260 c-4 -16 5 -63
25 -128 17 -56 32 -103 34 -105 7 -7 243 33 263 45 l23 14 -21 -41 c-11 -22
-25 -38 -30 -35 -5 3 -53 0 -107 -6 -54 -6 -103 -12 -110 -12 -7 0 -17 -13
-22 -29 -9 -26 -7 -30 27 -52 66 -41 100 -56 116 -50 21 8 20 4 -9 -47 -17
-31 -25 -38 -25 -24 0 29 -283 198 -322 192 -16 -2 -28 -2 -28 0 0 2 12 22 27
44 24 37 28 39 34 21 11 -29 149 -108 159 -92 5 7 7 18 5 24 -36 118 -70 208
-81 214 -13 7 -11 15 12 50 32 48 39 52 30 17z m-3460 -26 c43 -20 99 -89 110
-136 4 -13 9 -23 13 -22 3 0 19 27 34 60 64 135 211 159 267 43 47 -96 -5
-199 -255 -507 -30 -38 -55 -64 -55 -57 0 6 -28 44 -63 83 -91 105 -169 212
-213 292 -61 111 -51 197 29 245 41 25 80 25 133 -1z m-3079 -116 c40 -65 67
-120 61 -122 -6 -2 -19 -12 -30 -23 -22 -22 -38 -17 -18 7 7 8 10 25 6 39 -8
31 -76 146 -86 146 -5 0 -36 -16 -69 -36 l-60 -36 40 -59 c22 -32 46 -59 54
-59 8 0 15 -4 15 -10 0 -5 -9 -10 -19 -10 -11 0 -26 -7 -35 -15 -21 -21 -29
-19 -16 5 8 16 4 30 -21 75 -17 30 -34 55 -38 55 -6 0 -127 -74 -139 -85 -2
-2 20 -40 49 -85 45 -70 55 -81 76 -77 12 2 23 1 23 -2 -1 -9 -70 -39 -70 -30
0 13 -109 191 -134 218 l-21 24 28 -7 c23 -6 50 8 172 85 80 51 145 98 145
106 0 30 20 7 87 -104z m203 -292 c0 -5 12 -24 26 -41 l27 -31 -26 6 c-21 6
-37 -2 -84 -40 -32 -26 -59 -51 -61 -55 -5 -13 27 -20 136 -32 82 -9 105 -9
111 1 6 9 17 2 39 -25 33 -40 35 -59 4 -31 -13 12 -52 20 -121 27 -57 6 -104
10 -105 8 -13 -18 -57 -254 -52 -275 l6 -28 -28 33 -28 33 28 112 c33 135 33
139 8 155 -18 11 -28 7 -85 -40 -39 -31 -65 -59 -65 -71 0 -15 -7 -11 -35 19
-19 20 -35 38 -35 40 0 1 11 2 25 1 31 -2 294 199 295 226 0 17 20 25 20 8z
m6184 -84 c84 -47 117 -120 101 -222 -9 -62 -79 -138 -144 -155 -76 -20 -162
9 -219 74 -78 90 -44 244 67 303 59 31 141 31 195 0z m-497 -356 c-1 -11 42
-68 116 -150 101 -112 122 -131 140 -125 26 8 35 16 -128 -126 -71 -62 -160
-139 -197 -172 -51 -44 -67 -54 -65 -40 3 28 -219 282 -247 282 -17 0 -15 4
14 30 39 32 52 37 44 16 -5 -12 54 -84 217 -270 7 -8 38 15 133 95 10 9 -212
262 -237 269 -16 4 -13 10 21 37 36 29 39 30 35 10 -3 -17 24 -54 107 -150
l111 -128 32 27 c97 81 99 83 85 102 -7 10 -60 71 -118 135 -84 94 -108 116
-125 111 -13 -4 -7 6 20 30 47 42 45 41 42 17z m-5249 -98 c-72 -171 -129
-331 -125 -350 2 -13 0 -23 -4 -23 -5 0 -9 4 -9 9 0 5 -17 20 -37 32 -35 22
-36 24 -15 29 15 3 30 22 46 55 l23 50 -70 65 -69 64 -47 -27 c-32 -18 -46
-32 -45 -47 0 -11 0 -20 -1 -20 -2 0 -20 16 -41 36 -29 27 -33 35 -17 30 30
-9 364 142 371 167 4 17 7 17 30 -7 25 -24 25 -26 10 -63z m453 -312 l36 -24
-24 -36 c-13 -19 -26 -37 -28 -39 -2 -2 -1 14 2 35 5 36 3 40 -42 72 -25 18
-49 30 -53 27 -3 -4 -50 -69 -103 -144 -76 -108 -95 -141 -87 -154 12 -24 -5
-23 -27 2 -10 11 -26 22 -36 25 -11 4 -19 11 -19 17 0 5 6 8 13 5 8 -3 18 -2
24 1 11 8 193 261 199 277 5 13 -69 65 -91 65 -9 0 -25 -5 -36 -10 -27 -15
-24 -1 7 31 l25 27 102 -77 c56 -42 118 -87 138 -100z m4256 -192 c71 -51 144
-104 163 -119 20 -16 47 -30 60 -32 24 -3 23 -5 -12 -22 -21 -10 -38 -22 -38
-27 0 -5 -4 -9 -8 -9 -5 0 -8 10 -8 22 1 14 -13 31 -41 51 l-42 30 -79 -48
-79 -48 11 -55 c8 -39 17 -57 30 -62 16 -5 14 -9 -18 -28 -45 -27 -49 -27 -37
-4 6 11 -1 75 -20 191 -33 198 -36 211 -52 211 -9 0 30 39 40 40 2 0 60 -41
130 -91z m-3964 12 c60 -33 113 -61 118 -61 12 0 12 -4 -8 -45 -20 -42 -35
-46 -27 -7 4 17 1 32 -8 39 -39 33 -181 103 -155 77 3 -3 -10 -34 -29 -69
l-35 -63 58 -31 c33 -18 64 -29 75 -25 22 7 24 -9 3 -26 -8 -7 -15 -18 -15
-26 0 -7 -5 -16 -11 -20 -8 -4 -9 0 -4 14 5 18 -3 27 -49 57 -30 19 -59 35
-63 35 -7 0 -83 -131 -83 -143 0 -4 32 -25 71 -48 71 -41 72 -41 105 -25 40
19 42 11 9 -27 l-24 -27 -102 60 c-55 33 -112 63 -125 66 -30 8 -31 24 -1 24
19 0 37 26 109 153 54 94 83 156 77 162 -11 11 -12 28 -1 22 4 -3 56 -32 115
-66z m3601 -107 c18 -39 17 -54 -4 -29 -17 20 -49 19 -105 -5 -38 -16 -45 -23
-36 -34 7 -8 41 -79 76 -157 49 -111 69 -145 85 -147 24 -4 27 -22 3 -22 -10
0 -33 -9 -50 -20 -32 -19 -44 -15 -23 6 8 8 -11 60 -60 169 -39 87 -72 160
-74 162 -1 2 -26 -6 -54 -18 -48 -20 -52 -24 -52 -55 0 -44 -14 -43 -28 2
l-11 36 82 36 c45 20 114 53 152 74 39 20 73 37 76 37 3 1 13 -15 23 -35z
m-3203 -85 c103 -45 124 -60 145 -101 18 -36 18 -72 -2 -114 -33 -70 -130 -85
-220 -35 l-51 28 -23 -64 c-17 -48 -20 -67 -11 -76 22 -22 10 -26 -21 -7 -18
11 -42 20 -53 20 -19 0 -19 1 2 15 31 22 158 342 142 361 -16 20 -12 19 92
-27z m2737 -153 l4 -39 -25 29 c-22 26 -32 29 -81 28 -114 -1 -180 -99 -146
-219 16 -56 70 -120 115 -135 71 -23 162 12 192 75 l16 34 14 -25 c11 -23 11
-28 -10 -45 -112 -94 -275 -90 -342 9 -62 91 -54 197 19 268 52 49 92 63 176
61 l64 -2 4 -39z m-2336 3 c41 -9 49 -13 33 -19 -17 -6 -25 -32 -49 -141 -16
-74 -33 -144 -37 -156 -5 -13 -5 -23 -1 -23 14 0 297 242 300 257 3 10 11 13
25 9 12 -3 32 -6 45 -6 26 0 30 -16 5 -22 -14 -4 -28 -44 -61 -178 -40 -163
-42 -174 -26 -191 18 -20 6 -27 -12 -9 -6 6 -27 11 -47 12 -34 1 -55 18 -23
18 8 0 17 4 21 9 8 15 75 305 70 309 -2 2 -74 -55 -160 -127 -153 -129 -157
-132 -198 -128 -35 3 -38 5 -19 11 12 5 22 9 22 11 0 1 18 80 40 176 38 163
40 174 24 186 -22 16 -19 16 48 2z m608 -128 c25 -7 25 -8 3 -15 -19 -6 -22
-15 -25 -84 -2 -42 -3 -78 -2 -80 2 -5 235 -25 239 -20 3 3 8 39 11 82 6 68 5
78 -12 92 -18 15 -18 15 6 10 14 -3 40 -6 58 -6 17 0 32 -4 32 -10 0 -5 -6
-10 -14 -10 -10 0 -16 -23 -21 -92 -3 -51 -11 -133 -16 -182 -8 -78 -7 -90 7
-101 14 -10 7 -12 -40 -11 -31 1 -56 3 -56 4 0 2 9 11 19 20 15 13 20 36 25
99 l5 81 -97 6 c-53 4 -109 9 -123 11 l-27 4 -7 -90 c-6 -81 -5 -92 11 -105
18 -14 18 -15 -5 -9 -12 4 -39 7 -59 7 -32 0 -34 1 -19 13 15 11 20 41 31 187
12 152 11 175 -2 191 -14 16 -13 17 19 16 19 -1 45 -4 59 -8z m960 0 c0 -5 -6
-11 -13 -14 -19 -7 16 -357 38 -373 23 -17 19 -19 -34 -20 -44 -1 -48 1 -39
16 7 11 6 66 -6 183 -9 91 -16 170 -16 176 0 5 -10 13 -22 18 -23 7 -10 11 80
21 6 1 12 -2 12 -7z m-362 -34 c-14 -11 -16 -25 -11 -89 l6 -77 67 6 c85 7
135 -8 161 -51 27 -44 24 -88 -7 -125 -29 -35 -65 -46 -177 -55 -43 -4 -85
-10 -95 -13 -16 -6 -16 -5 0 13 15 18 16 35 6 194 -7 128 -14 178 -24 186 -24
19 -16 24 39 24 44 -1 50 -3 35 -13z"/>
<path d="M6040 11329 c-654 -39 -1291 -209 -1869 -499 -650 -325 -1222 -808
-1691 -1429 -444 -588 -776 -1359 -900 -2090 -46 -273 -74 -677 -61 -901 l6
-104 182 -37 c568 -115 941 -115 1419 1 399 96 884 309 1246 546 l97 63 46 92
c183 363 464 677 682 759 115 44 223 37 300 -19 56 -41 78 -90 78 -176 0 -63
-5 -80 -47 -165 -57 -117 -139 -216 -262 -318 -150 -124 -333 -217 -477 -243
l-67 -12 -41 -102 c-142 -356 -113 -657 74 -758 56 -31 206 -30 324 2 323 86
771 390 1218 825 113 109 140 142 177 213 275 515 703 798 965 635 125 -76
146 -249 49 -392 -32 -48 -65 -69 -87 -56 -7 5 -3 27 11 64 26 66 30 175 9
214 -30 56 -99 62 -192 16 -47 -23 -91 -59 -169 -137 -305 -307 -537 -842
-501 -1156 17 -145 72 -230 183 -281 59 -27 70 -29 193 -29 139 1 199 11 380
67 257 79 508 209 990 513 755 477 1009 610 1428 749 411 136 884 188 1184
131 42 -8 78 -14 79 -12 3 4 -33 219 -51 297 -85 375 -227 765 -410 1125 -45
88 -93 178 -107 200 -14 22 -46 76 -71 120 -42 74 -101 160 -239 354 -167 234
-475 564 -738 791 -618 532 -1353 891 -2165 1058 -339 70 -814 103 -1175 81z
m409 -679 c24 -1 24 -2 9 -14 -15 -11 -18 -29 -18 -95 0 -53 4 -81 11 -81 17
0 179 161 173 171 -3 5 19 9 48 8 48 -1 51 -2 28 -12 -37 -17 -62 -37 -124
-95 l-55 -53 79 -108 c43 -59 89 -113 102 -119 20 -10 15 -11 -27 -6 -27 3
-50 7 -51 7 0 1 -31 46 -68 100 -89 130 -109 130 -120 0 -5 -68 -4 -83 9 -90
10 -6 -4 -9 -40 -9 -43 1 -52 3 -40 12 12 9 17 47 23 188 7 170 6 177 -13 192
-19 14 -18 15 14 9 18 -3 45 -5 60 -5z m-610 -33 c-14 -11 -13 -28 10 -189 22
-159 27 -179 45 -185 16 -5 7 -9 -34 -18 -57 -11 -74 -10 -51 4 10 6 11 26 6
85 -4 42 -10 78 -14 80 -3 1 -24 1 -46 -1 l-40 -5 -43 -97 c-42 -97 -42 -97
-87 -107 -45 -10 -64 -1 -24 11 14 5 35 36 62 93 23 48 43 90 45 95 2 4 -6 7
-18 7 -29 0 -77 26 -90 49 -20 39 -12 95 18 123 33 31 52 37 162 53 116 17
119 17 99 2z m1192 -13 c51 -8 104 -20 118 -25 117 -45 103 -206 -21 -239 -30
-9 -53 -7 -99 5 -33 8 -62 15 -64 15 -1 0 -6 -29 -10 -65 -5 -49 -3 -70 7 -82
11 -14 11 -16 -4 -10 -9 3 -33 9 -53 13 -29 5 -33 8 -21 18 22 16 72 352 55
372 -14 17 -18 17 92 -2z m-1753 -93 c-17 -27 87 -352 115 -359 13 -3 4 -10
-30 -21 -53 -18 -61 -18 -45 2 8 9 -1 47 -34 147 -24 74 -44 141 -44 148 0 6
-4 12 -8 12 -12 0 -135 -374 -125 -384 2 -2 -9 -7 -26 -11 -17 -4 -33 -11 -36
-16 -4 -5 -11 -9 -17 -9 -7 0 -6 5 2 15 15 18 13 25 -46 213 -38 118 -49 142
-65 142 -35 0 -20 16 32 32 36 12 47 13 40 4 -8 -9 2 -51 34 -152 25 -76 48
-146 52 -154 3 -8 34 70 69 174 35 104 61 192 58 195 -5 5 60 38 79 40 4 1 2
-8 -5 -18z m2330 -46 c2 -2 10 -77 18 -167 16 -200 22 -238 36 -255 13 -16 14
-16 -50 6 -36 12 -47 20 -35 23 15 4 18 14 15 64 l-4 59 -73 22 c-40 13 -79
25 -87 28 -7 2 -28 -15 -47 -42 -28 -38 -32 -49 -22 -65 6 -10 7 -18 2 -18 -6
0 -13 5 -16 10 -3 6 -19 10 -35 10 -35 0 -49 17 -18 22 26 4 271 295 261 311
-5 9 46 2 55 -8z m-2938 -169 c-9 -12 3 -45 64 -170 41 -86 81 -156 88 -156 7
0 20 5 28 10 12 7 18 -1 33 -37 10 -25 15 -48 12 -51 -3 -3 -18 7 -33 21 -16
15 -33 27 -40 27 -23 0 -280 -134 -277 -144 2 -6 6 -26 9 -43 8 -47 -11 -41
-33 9 -17 42 -17 44 1 69 26 35 18 100 -31 239 -34 98 -39 105 -65 108 -24 3
-5 15 105 67 142 68 159 74 139 51z m3455 -25 c22 -10 53 -33 69 -50 17 -17
35 -31 42 -31 9 0 6 -12 -9 -35 -27 -42 -32 -43 -33 -5 -1 39 -36 77 -93 102
-55 25 -99 18 -148 -25 -91 -80 -97 -227 -12 -289 42 -31 105 -41 141 -23 17
8 32 15 33 15 1 0 -3 -16 -9 -35 -10 -33 -26 -48 -26 -25 0 6 -19 10 -42 10
-78 1 -171 63 -197 133 -25 66 -6 164 42 216 54 58 165 78 242 42z m-3907
-210 c-9 -14 -6 -53 10 -177 25 -180 26 -213 11 -247 -22 -48 -102 -75 -112
-38 -6 25 2 34 18 21 24 -20 63 6 71 44 3 20 4 42 1 48 -9 23 -272 158 -308
158 l-33 0 47 30 c56 35 53 35 59 12 3 -10 32 -32 64 -50 32 -17 83 -46 113
-63 l54 -31 -7 53 c-20 164 -29 202 -49 207 -17 4 -14 8 19 28 47 29 58 30 42
5z m4360 -47 c103 -43 158 -162 118 -258 -53 -127 -210 -176 -319 -100 -87 62
-111 162 -62 261 48 96 163 139 263 97z m-4768 -296 c0 -5 -9 -4 -19 2 -33 17
-56 12 -95 -22 l-37 -33 111 -132 c79 -96 117 -133 133 -134 22 0 22 0 -3 -17
-13 -9 -31 -25 -39 -34 -21 -24 -29 -22 -24 5 3 16 -20 50 -88 132 -50 61
-100 121 -110 134 l-20 24 -40 -39 c-34 -33 -40 -44 -37 -71 2 -18 1 -33 -2
-33 -9 0 -53 61 -47 66 2 2 62 51 133 109 l129 104 28 -26 c15 -15 27 -31 27
-35z m5242 -62 l127 -109 -22 -28 c-29 -37 -38 -36 -30 3 6 28 2 36 -36 69
l-43 36 -67 -71 c-111 -120 -159 -180 -163 -203 -3 -20 -5 -20 -43 14 -27 24
-33 33 -19 29 17 -5 39 14 119 106 55 62 108 123 118 135 20 22 20 22 -13 50
-43 36 -59 42 -92 32 -16 -4 -28 -5 -28 -3 0 8 54 54 60 51 3 -1 63 -51 132
-111z m-5663 -283 c26 -32 23 -36 -17 -22 -59 20 -131 -33 -153 -113 -29 -109
86 -237 203 -226 85 9 143 69 143 149 0 27 1 49 3 49 2 0 10 -6 18 -14 7 -8
19 -17 26 -19 9 -4 10 -8 2 -14 -6 -4 -17 -25 -23 -46 -59 -179 -323 -189
-396 -15 -43 105 7 220 120 276 52 26 50 26 74 -5z m6001 -48 c0 -2 -9 -1 -20
2 -14 4 -35 -9 -72 -45 l-53 -51 46 -48 c56 -58 69 -81 69 -126 0 -64 -62
-106 -138 -93 -30 4 -52 21 -114 86 -43 45 -78 83 -78 85 0 2 9 1 19 -2 26 -7
264 212 269 247 4 22 5 22 38 -14 19 -20 34 -39 34 -41z m218 -235 l33 -40
-28 6 c-24 4 -40 -6 -113 -72 -47 -42 -104 -92 -128 -112 -34 -28 -43 -41 -39
-59 2 -13 0 -23 -4 -23 -5 0 -9 4 -9 9 0 5 -14 23 -31 40 -30 30 -30 31 -7 31
28 0 271 212 276 241 5 27 13 24 50 -21z"/>
<path d="M5730 10593 c-76 -13 -100 -25 -116 -55 -20 -39 -11 -92 19 -113 22
-16 132 -21 154 -7 15 9 -5 183 -21 181 -6 -1 -22 -4 -36 -6z"/>
<path d="M6991 10508 c-7 -46 -15 -92 -17 -104 -4 -17 2 -23 34 -32 84 -26
135 -12 158 43 35 84 -1 146 -90 159 -27 4 -54 10 -60 12 -9 3 -16 -22 -25
-78z"/>
<path d="M7498 10351 c-32 -43 -58 -81 -58 -84 0 -4 129 -47 142 -47 2 0 0 35
-4 78 -3 42 -7 89 -7 105 -1 15 -4 27 -8 26 -5 0 -34 -35 -65 -78z"/>
<path d="M4542 10227 c-46 -23 -61 -35 -56 -47 40 -94 77 -224 78 -272 1 -32
4 -58 8 -58 4 0 50 21 101 47 l94 46 -75 159 c-42 87 -78 158 -81 157 -4 0
-34 -14 -69 -32z"/>
<path d="M8449 9987 c-67 -34 -103 -92 -107 -175 -3 -57 0 -72 20 -101 73
-107 209 -85 273 43 46 92 26 184 -50 227 -51 29 -88 30 -136 6z"/>
<path d="M9162 9158 l-63 -61 29 -36 c16 -20 45 -45 65 -56 l37 -20 37 20 c45
24 62 69 44 112 -10 23 -75 103 -84 103 -1 0 -30 -28 -65 -62z"/>
<path d="M5319 7553 c-65 -32 -233 -196 -334 -327 -99 -127 -201 -300 -181
-304 39 -8 218 70 311 136 83 58 214 192 266 270 68 104 87 182 53 230 -20 29
-48 28 -115 -5z"/>
<path d="M9264 4340 c-33 -13 -82 -77 -90 -115 -13 -69 24 -141 95 -186 142
-91 307 43 232 189 -48 92 -157 145 -237 112z"/>
<path d="M3552 3885 l-93 -43 63 -55 63 -56 30 84 c17 46 34 87 38 91 9 10 9
24 0 23 -5 -1 -50 -20 -101 -44z"/>
<path d="M8284 3408 c3 -13 12 -59 21 -102 8 -44 17 -81 18 -82 2 -2 30 15 62
36 33 22 65 42 70 45 6 3 6 7 -1 10 -7 3 -44 30 -85 60 -40 30 -76 55 -81 55
-5 0 -6 -10 -4 -22z"/>
<path d="M4793 3192 c-3 -9 -19 -50 -35 -90 -15 -40 -28 -77 -28 -82 0 -13 94
-60 119 -60 76 0 128 96 90 166 -12 24 -55 52 -115 74 -20 8 -26 6 -31 -8z"/>
<path d="M6465 2723 c-19 -4 -20 -9 -13 -91 3 -48 7 -88 7 -89 1 -2 28 -3 60
-3 49 0 65 4 88 24 23 20 28 32 28 71 0 39 -5 51 -28 71 -27 23 -79 30 -142
17z"/>
</g>
</svg>
