<?xml version="1.0" standalone="no"?>
<!DOCTYPE svg PUBLIC "-//W3C//DTD SVG 20010904//EN"
 "http://www.w3.org/TR/2001/REC-SVG-20010904/DTD/svg10.dtd">
<svg version="1.0" xmlns="http://www.w3.org/2000/svg"
 width="1254.000000pt" height="1254.000000pt" viewBox="0 0 1254.000000 1254.000000"
 preserveAspectRatio="xMidYMid meet">

<g transform="translate(0.000000,1254.000000) scale(0.100000,-0.100000)"
fill="#000000" stroke="none">
<path d="M5895 11599 c-429 -32 -889 -128 -1315 -275 -454 -156 -881 -386
-1295 -698 -381 -287 -736 -640 -1016 -1011 -398 -526 -700 -1165 -857 -1815
-101 -413 -142 -761 -142 -1191 l0 -256 65 -6 c35 -3 162 -26 282 -51 361 -74
420 -80 748 -81 231 0 313 4 405 18 530 83 1060 289 1548 600 l113 72 64 123
c238 454 547 755 800 779 85 8 144 -10 199 -59 148 -130 77 -373 -180 -618
-170 -163 -362 -269 -557 -310 l-55 -11 -36 -88 c-72 -182 -107 -385 -87 -518
28 -187 116 -273 283 -273 350 0 876 314 1425 854 125 122 160 163 189 219
196 378 471 638 734 693 156 33 289 -21 353 -141 16 -31 21 -58 21 -120 0 -72
-3 -86 -33 -143 -31 -57 -80 -112 -101 -112 -4 0 -12 6 -18 13 -8 9 -6 30 9
78 26 82 23 187 -6 219 -30 33 -61 42 -108 29 -246 -64 -644 -645 -731 -1064
-60 -292 -4 -483 163 -558 65 -29 227 -35 362 -12 328 54 662 215 1329 635
518 327 766 465 1046 583 444 187 827 272 1219 271 205 0 369 -21 468 -60 15
-5 17 -2 13 17 -3 13 -17 92 -32 174 -183 1040 -719 2027 -1493 2750 -383 357
-765 626 -1202 844 -557 279 -1204 453 -1854 501 -161 11 -559 11 -720 -1z
m585 -775 c0 -3 -6 -12 -14 -19 -17 -18 -23 -175 -5 -175 16 0 179 161 179
177 0 14 55 18 85 7 12 -5 7 -11 -22 -24 -21 -10 -67 -47 -102 -83 l-64 -65
76 -105 c42 -57 86 -111 99 -120 23 -16 22 -16 -23 -16 l-45 -1 -73 105 c-63
92 -75 105 -94 99 -12 -3 -23 -7 -24 -8 -1 -1 -3 -36 -4 -78 -1 -51 2 -83 11
-93 11 -13 6 -15 -44 -15 -58 0 -67 5 -41 24 12 9 16 48 22 189 6 167 5 178
-13 192 -17 13 -14 14 39 15 31 0 57 -3 57 -6z m-643 -36 c-16 -12 -16 -23 3
-163 27 -201 30 -214 48 -224 15 -9 -2 -14 -75 -24 -13 -2 -15 6 -7 28 4 9 2
46 -2 83 l-9 67 -35 -3 c-19 -2 -39 -6 -44 -9 -4 -3 -28 -48 -52 -100 -24 -51
-49 -95 -56 -97 -7 -3 -28 -7 -45 -10 -34 -6 -46 9 -15 18 13 5 102 161 102
180 0 3 -16 10 -35 16 -50 17 -75 53 -75 110 0 42 4 52 34 78 40 35 125 56
240 61 34 1 37 -1 23 -11z m1230 -14 c144 -23 183 -50 190 -131 10 -118 -104
-188 -224 -138 -20 8 -37 14 -39 13 -1 -2 -7 -30 -13 -62 -7 -40 -8 -63 -1
-70 26 -26 -10 -30 -85 -9 -19 6 -19 6 1 14 17 6 23 21 33 86 6 43 19 124 28
180 13 83 13 105 3 118 -16 19 -14 19 107 -1z m-1807 -98 c-18 -23 93 -354
124 -366 21 -8 21 -8 -4 -18 -14 -5 -41 -13 -60 -17 -30 -7 -33 -6 -22 7 10
13 4 42 -35 159 -25 79 -49 147 -53 152 -3 4 -35 -84 -70 -197 l-64 -204 -35
-11 c-39 -12 -49 -8 -33 12 18 21 -94 356 -122 367 -20 8 -19 9 7 19 15 6 39
14 54 17 21 6 24 4 19 -12 -6 -20 88 -322 97 -307 10 18 107 320 115 358 7 35
12 41 47 51 46 13 53 11 35 -10z m2389 -42 c2 -2 12 -97 23 -211 14 -163 22
-211 36 -226 17 -19 16 -19 -18 -12 -66 14 -83 24 -71 39 7 8 11 37 9 68 l-3
53 -84 27 c-46 15 -87 26 -90 23 -4 -2 -21 -23 -38 -48 -24 -33 -29 -47 -21
-55 16 -16 -3 -16 -57 -1 l-39 11 26 12 c37 15 271 303 264 323 -5 12 0 13 27
8 17 -4 34 -9 36 -11z m-3015 -178 c-4 -17 16 -65 71 -177 43 -85 78 -155 80
-157 1 -1 14 2 28 7 24 9 26 7 47 -41 12 -27 18 -53 15 -56 -4 -4 -20 8 -36
26 l-30 33 -146 -70 -146 -71 5 -45 c7 -60 -11 -59 -40 1 l-23 46 21 15 c37
26 21 142 -42 298 -18 45 -30 61 -46 63 -12 2 -22 7 -22 10 0 6 251 138 268
141 1 1 0 -10 -4 -23z m3551 -30 c28 -13 65 -39 84 -59 l33 -35 -18 -31 c-21
-36 -34 -40 -34 -11 0 97 -142 158 -234 101 -71 -44 -109 -177 -71 -250 35
-68 114 -104 183 -83 20 6 37 10 39 9 1 -2 -3 -17 -9 -35 -13 -34 -12 -34
-113 -6 -102 28 -164 93 -173 182 -17 177 152 294 313 218z m-4004 -210 c-9
-11 -8 -53 8 -189 12 -96 21 -190 21 -210 0 -44 -38 -93 -81 -102 -35 -8 -34
-8 -44 23 -6 21 -4 22 20 16 37 -9 65 19 65 67 l0 37 -139 76 c-77 42 -151 76
-165 76 -37 0 -32 11 17 40 57 34 61 35 54 17 -5 -12 21 -31 110 -82 64 -36
116 -65 117 -65 1 0 -5 54 -14 121 -11 92 -19 124 -33 134 -16 12 -14 15 25
38 45 26 59 28 39 3z m4443 -47 c23 -6 57 -29 86 -58 82 -82 89 -184 20 -279
-78 -108 -222 -118 -320 -23 -55 52 -76 109 -66 178 19 141 141 221 280 182z
m-4864 -312 c0 -5 -6 -7 -12 -4 -50 18 -56 17 -96 -20 l-42 -38 114 -135 c92
-108 118 -134 136 -132 28 5 20 -8 -30 -48 -40 -31 -40 -31 -38 -8 1 18 -28
60 -107 155 -61 72 -115 132 -121 132 -5 1 -25 -15 -44 -34 -29 -29 -34 -42
-32 -73 l3 -37 -28 35 c-15 19 -28 38 -28 42 0 3 60 57 134 118 l134 111 28
-27 c16 -15 29 -32 29 -37z m5378 -82 c61 -54 112 -101 112 -104 -1 -8 -48
-61 -55 -61 -3 0 -3 15 0 34 6 30 3 36 -35 68 l-41 36 -47 -52 c-122 -131
-193 -219 -188 -232 9 -22 -6 -16 -48 21 -38 33 -38 35 -14 35 19 0 49 28 134
126 60 69 110 130 112 135 3 8 -44 54 -74 72 -7 4 -24 3 -38 -3 -33 -12 -33
-3 1 32 26 27 27 28 47 10 12 -10 72 -63 134 -117z m-5809 -274 c12 -16 21
-31 21 -34 0 -2 -19 -2 -42 0 -116 13 -191 -144 -118 -247 103 -145 320 -103
320 63 l0 48 29 -20 29 -21 -25 -53 c-37 -78 -67 -112 -117 -136 -144 -67
-306 35 -306 191 1 89 45 159 137 214 49 29 48 29 72 -5z m6111 -23 c23 -28
28 -39 16 -35 -13 5 -32 -7 -74 -47 l-56 -54 42 -46 c23 -25 50 -61 58 -80 37
-76 -16 -156 -102 -156 -57 0 -76 13 -165 112 -57 62 -68 80 -50 75 18 -4 34
4 75 41 125 113 214 206 209 218 -10 27 12 13 47 -28z m251 -279 c30 -39 31
-40 8 -34 -20 5 -45 -14 -154 -111 -84 -75 -132 -126 -135 -142 -5 -24 -6 -24
-44 23 -31 37 -35 46 -19 41 16 -5 49 19 157 114 89 80 136 128 136 141 0 25
10 19 51 -32z"/>
<path d="M5688 10751 c-80 -16 -115 -69 -84 -129 20 -39 62 -53 126 -43 28 4
52 10 54 12 3 2 -1 41 -7 87 -12 90 -9 88 -89 73z"/>
<path d="M7025 10726 c-7 -29 -25 -148 -25 -162 0 -14 70 -44 101 -44 86 0
136 127 73 185 -15 14 -32 25 -38 26 -6 0 -32 4 -59 8 -43 7 -48 6 -52 -13z"/>
<path d="M7537 10503 c-32 -41 -57 -76 -55 -79 7 -6 132 -43 136 -40 6 6 -10
196 -17 195 -3 0 -32 -34 -64 -76z"/>
<path d="M4507 10379 c-45 -23 -58 -34 -53 -47 3 -9 22 -64 42 -121 21 -63 37
-126 38 -158 0 -29 4 -53 7 -53 9 0 189 89 189 94 0 13 -151 316 -157 316 -4
-1 -34 -15 -66 -31z"/>
<path d="M8501 10123 c-40 -20 -87 -82 -101 -134 -29 -107 44 -209 148 -209
48 0 96 31 136 88 40 57 48 150 17 200 -43 67 -127 91 -200 55z"/>
<path d="M9235 9260 l-60 -61 52 -49 c61 -59 91 -64 134 -21 41 42 38 77 -11
140 -22 28 -44 51 -48 51 -4 0 -34 -27 -67 -60z"/>
<path d="M5299 7582 c-144 -92 -351 -329 -479 -549 -22 -37 -40 -71 -40 -75 0
-12 101 21 185 61 271 128 523 445 455 572 -16 28 -68 24 -121 -9z"/>
<path d="M11723 7327 c-68 -61 -97 -71 -223 -75 -92 -3 -133 0 -203 17 -49 12
-90 21 -92 21 -4 0 6 -72 10 -78 7 -8 214 -42 259 -42 76 0 163 18 216 45 62
32 113 86 108 116 -5 36 -32 34 -75 -4z"/>
<path d="M10520 7270 c-522 -55 -1059 -253 -1635 -603 -55 -33 -194 -121 -310
-195 -517 -331 -681 -430 -888 -533 -230 -116 -405 -178 -596 -214 -105 -19
-295 -19 -385 0 -297 63 -451 312 -417 676 10 102 37 240 57 294 5 11 -55 -38
-132 -110 -278 -259 -450 -398 -676 -545 -288 -189 -504 -269 -723 -270 -169
0 -290 46 -385 146 -107 114 -152 278 -132 489 10 103 44 269 67 328 5 10 -50
-17 -142 -72 -418 -249 -837 -417 -1258 -504 -215 -45 -295 -52 -580 -52 -335
1 -432 13 -885 116 -96 22 -186 42 -199 45 l-24 5 7 -93 c31 -414 154 -943
319 -1368 198 -511 505 -1023 865 -1443 130 -153 441 -461 587 -583 504 -422
1079 -744 1686 -945 1310 -433 2702 -294 3925 391 231 130 483 300 674 453
287 232 614 561 836 842 604 763 975 1705 1055 2675 22 270 13 753 -17 968 -8
51 -14 54 -149 83 -105 23 -408 33 -545 19z m-846 -2414 c-4 -19 46 -219 59
-232 7 -8 258 34 272 46 11 9 15 9 15 1 0 -21 -30 -71 -43 -71 -31 -1 -228
-30 -237 -35 -6 -3 -10 -14 -10 -24 0 -26 121 -101 150 -94 20 5 20 3 -7 -41
-23 -37 -29 -42 -34 -28 -4 10 -77 60 -163 111 -132 78 -159 90 -176 81 -26
-14 -25 -10 7 45 30 48 43 56 43 27 0 -19 137 -105 153 -95 10 6 6 24 -29 140
-14 46 -32 89 -40 98 -14 13 -13 19 7 55 25 44 43 53 33 16z m-6675 -148 c39
-64 71 -118 71 -121 0 -3 -16 -15 -36 -26 -33 -19 -36 -20 -29 -4 4 10 9 26
12 35 4 14 -24 68 -76 147 -7 12 -17 10 -53 -12 -87 -52 -85 -46 -44 -110 21
-32 44 -57 54 -57 13 -1 10 -7 -13 -25 -36 -30 -61 -34 -46 -7 7 13 2 30 -21
72 -17 30 -32 56 -33 58 -2 2 -35 -18 -74 -43 l-70 -47 36 -57 c50 -79 62 -91
95 -91 39 0 35 -12 -11 -31 l-38 -16 -74 120 c-41 67 -75 124 -77 128 -1 3 9
4 22 2 20 -4 55 14 148 74 68 44 133 85 146 92 12 7 22 21 22 33 0 30 7 21 89
-114z m3137 71 c33 -20 71 -72 94 -127 l13 -33 29 60 c60 126 181 164 252 80
47 -56 34 -151 -37 -264 -45 -73 -133 -191 -190 -258 l-50 -58 -28 28 c-55 55
-209 269 -244 339 -46 92 -49 166 -9 213 43 52 105 59 170 20z m-2912 -393
c30 -40 32 -48 11 -44 -13 3 -144 -90 -145 -103 0 -10 79 -21 177 -24 90 -3
94 -4 119 -35 30 -35 27 -49 -8 -27 -12 9 -59 18 -103 22 -44 3 -90 8 -101 10
-20 4 -23 -5 -49 -125 -15 -71 -25 -138 -22 -149 3 -12 2 -21 -2 -21 -14 0
-63 59 -57 68 3 6 18 61 32 123 22 99 23 114 10 127 -13 13 -23 9 -86 -38 -44
-33 -69 -58 -66 -66 10 -27 -11 -14 -43 27 -33 40 -33 40 -8 37 18 -2 58 25
166 112 82 67 139 120 136 127 -9 25 13 13 39 -21z m6293 -54 c137 -71 156
-262 36 -361 -152 -125 -383 16 -342 208 31 145 178 218 306 153z m-503 -369
c-6 -24 226 -280 257 -285 18 -2 -16 -37 -180 -183 -112 -99 -207 -182 -213
-184 -6 -2 -7 5 -4 17 9 28 -229 295 -256 286 -27 -8 -22 2 20 41 42 39 52 43
45 17 -3 -12 32 -59 113 -150 64 -73 120 -132 123 -132 3 1 32 25 65 54 l59
53 -114 128 c-68 76 -124 132 -138 135 -24 5 -23 6 16 38 48 37 50 38 49 13
-1 -21 211 -271 229 -271 5 1 36 24 67 53 l58 52 -120 133 c-67 72 -128 132
-137 132 -12 0 -8 9 17 35 38 39 50 44 44 18z m-5365 -46 l22 -24 -75 -197
c-46 -118 -73 -203 -69 -214 6 -15 5 -16 -13 -2 -38 28 -64 54 -64 62 0 5 4 7
10 3 11 -7 35 28 51 75 12 33 12 34 -55 97 l-66 63 -49 -25 c-30 -14 -51 -32
-53 -44 -3 -17 -7 -16 -43 15 l-40 34 32 0 c38 0 379 154 376 169 -5 18 12 12
36 -12z m364 -302 c75 -55 136 -104 136 -110 0 -5 -11 -23 -24 -40 l-25 -30 0
37 c0 31 -6 41 -42 67 -23 17 -45 28 -50 23 -38 -38 -198 -272 -198 -290 l0
-23 -40 28 c-43 30 -50 43 -22 43 11 0 53 51 114 138 54 75 98 141 99 146 0 5
-18 21 -42 36 -34 23 -47 27 -67 19 -14 -5 -27 -7 -30 -5 -5 6 41 66 49 63 3
-1 67 -47 142 -102z m4539 -333 c72 -52 137 -92 150 -92 19 0 15 -5 -22 -30
-51 -34 -62 -37 -58 -13 2 10 -15 29 -43 50 l-46 33 -76 -49 -75 -49 5 -44 c7
-51 20 -81 34 -73 5 4 9 2 9 -3 0 -4 -18 -18 -39 -30 l-39 -22 4 37 c7 53 -50
383 -67 394 -15 9 -15 8 20 32 24 16 26 15 70 -17 25 -18 103 -74 173 -124z
m-4135 71 c65 -36 120 -68 122 -70 3 -2 -4 -20 -14 -41 -18 -35 -19 -36 -23
-12 -6 35 -17 46 -90 87 -52 29 -66 33 -73 22 -5 -8 -22 -37 -38 -66 l-30 -51
56 -32 c30 -17 64 -29 74 -27 23 6 23 6 2 -38 -19 -39 -33 -46 -33 -15 0 13
-17 29 -52 50 -29 16 -55 30 -58 30 -7 0 -80 -126 -80 -138 0 -4 30 -25 68
-46 64 -36 83 -39 126 -21 16 7 17 5 7 -11 -36 -62 -30 -63 -153 6 -144 80
-144 80 -117 94 12 6 58 77 107 163 70 127 82 155 72 168 -23 28 7 16 127 -52z
m3675 -113 c19 -45 17 -47 -18 -24 -23 15 -28 15 -69 -1 -25 -9 -47 -20 -50
-25 -9 -15 133 -315 154 -325 12 -5 21 -12 21 -15 0 -3 -23 -15 -50 -27 l-50
-22 6 25 c4 17 -13 65 -61 171 -37 82 -70 152 -74 156 -4 4 -29 -1 -54 -12
-35 -15 -48 -27 -53 -48 -3 -15 -7 -32 -9 -38 -2 -9 -35 56 -35 70 0 7 299
153 315 154 6 1 18 -17 27 -39z m-3292 -76 c120 -50 150 -71 171 -119 39 -89
-26 -185 -126 -185 -40 0 -100 22 -127 47 -22 20 -21 20 -52 -48 -16 -37 -21
-60 -15 -70 17 -27 9 -28 -41 -7 -53 22 -61 33 -32 40 23 6 157 337 142 352
-9 9 -14 26 -7 26 1 0 41 -16 87 -36z m2818 -156 c2 -22 -1 -38 -7 -38 -6 0
-11 4 -11 10 0 21 -62 42 -103 36 -87 -14 -129 -62 -135 -152 -5 -72 17 -123
72 -171 43 -38 82 -48 137 -33 45 13 109 67 109 94 0 35 16 19 48 -46 2 -5 -6
-8 -17 -8 -12 0 -21 -3 -21 -7 0 -16 -72 -57 -121 -69 -79 -21 -142 -3 -200
55 -111 110 -85 276 53 345 45 23 64 26 123 24 l70 -3 3 -37z m-2348 -16 c3
-2 -2 -9 -11 -15 -10 -7 -30 -70 -52 -162 -32 -138 -37 -176 -19 -150 4 6 71
64 150 129 78 65 142 122 142 128 0 7 15 8 42 4 52 -8 56 -13 34 -29 -12 -9
-32 -69 -61 -183 -38 -152 -41 -171 -27 -186 14 -16 13 -18 -3 -18 -28 0 -95
22 -95 32 0 4 7 8 15 8 8 0 18 16 24 38 23 85 61 248 61 261 0 14 -28 -8 -218
-172 l-102 -88 -43 12 c-37 10 -39 12 -20 20 17 6 25 26 43 106 12 54 31 134
41 177 14 55 17 82 10 89 -6 6 -11 14 -11 18 0 6 90 -10 100 -19z m590 -118
c0 -3 -6 -11 -13 -19 -11 -11 -32 -153 -24 -161 6 -6 241 -23 246 -18 3 3 7
39 9 81 3 55 1 78 -9 84 -24 15 -1 21 51 14 42 -6 48 -9 35 -19 -12 -9 -19
-51 -31 -190 -14 -166 -13 -180 2 -197 16 -18 16 -19 -8 -19 -14 0 -40 3 -57
6 -28 6 -30 8 -18 23 9 9 17 51 21 99 l7 82 -33 1 c-18 0 -74 4 -124 7 l-92 7
-6 -44 c-9 -67 -7 -141 4 -141 6 0 10 -3 10 -7 0 -5 -25 -6 -55 -5 -58 4 -64
8 -40 26 12 9 19 51 30 186 12 157 12 177 -2 193 -15 16 -13 17 40 17 32 0 57
-3 57 -6z m967 -12 c-16 -17 -16 -31 -1 -193 14 -156 18 -176 37 -191 18 -14
19 -18 6 -18 -9 0 -38 -3 -65 -6 -49 -7 -49 -7 -31 13 13 15 16 31 13 59 -8
58 -15 129 -22 227 -6 71 -11 91 -26 102 -19 13 -19 13 -1 18 10 3 38 5 62 6
42 1 43 0 28 -17z m-359 -23 c-19 -11 -24 -75 -12 -138 l7 -32 72 7 c58 5 79
3 109 -11 88 -42 88 -168 1 -209 -24 -12 -73 -19 -148 -23 l-112 -6 19 21 c12
14 16 29 13 44 -3 13 -9 88 -13 168 -5 125 -9 147 -25 162 -10 9 -19 19 -19
22 0 3 28 6 63 6 47 -1 58 -3 45 -11z"/>
<path d="M9340 4299 c-70 -28 -110 -106 -90 -179 24 -88 129 -158 217 -145 82
12 145 98 128 175 -23 103 -164 185 -255 149z"/>
<path d="M3503 3831 l-82 -37 55 -55 c63 -62 61 -62 95 41 12 36 24 71 27 78
6 18 -5 15 -95 -27z"/>
<path d="M8343 3349 c3 -13 11 -59 18 -101 6 -43 14 -78 16 -78 4 0 114 69
123 77 5 5 -16 22 -104 85 -55 39 -59 40 -53 17z"/>
<path d="M4767 3103 c-8 -16 -24 -55 -37 -87 l-24 -59 27 -23 c66 -57 144 -49
178 18 36 70 10 128 -73 163 -50 20 -55 19 -71 -12z"/>
<path d="M6492 2643 l-33 -4 7 -87 c4 -48 8 -89 10 -91 1 -2 31 0 65 4 77 9
109 36 109 90 0 49 -13 71 -51 84 -32 11 -45 11 -107 4z"/>
<path d="M908 6344 c-82 -19 -153 -58 -215 -117 -42 -39 -53 -57 -51 -76 5
-42 34 -37 83 14 99 101 300 148 498 116 l47 -8 0 37 c0 31 -4 39 -22 44 -43
11 -282 5 -340 -10z"/>
</g>
</svg>
